<svg width="29" height="29" viewBox="0 0 29 29" fill="none" xmlns="http://www.w3.org/2000/svg">
<path d="M2.41667 0C1.0875 0 0 1.0875 0 2.41667V26.5833C0 27.9125 1.0875 29 2.41667 29H26.5833C27.9125 29 29 27.9125 29 26.5833V2.41667C29 1.0875 27.9125 0 26.5833 0H2.41667ZM2.41667 0.966667H26.5833C27.3895 0.966667 28.0333 1.61048 28.0333 2.41667V26.5833C28.0333 27.3895 27.3895 28.0333 26.5833 28.0333H20.3094V18.1439H23.8948L24.565 12.9462H20.3094V10.7296C20.3094 10.1613 20.3982 9.77428 20.5851 9.5515C20.772 9.32682 21.1213 9.15312 21.9237 9.15312L24.6462 9.15124V4.46139L24.2271 4.40475C23.7891 4.34622 22.4693 4.23483 20.8985 4.23483C19.1842 4.23483 17.687 4.76536 16.6278 5.81322C15.5667 6.85918 14.9739 8.3998 14.9739 10.3086V12.9462H11.3206V18.1439H14.9739V28.0333H2.41667C1.61048 28.0333 0.966667 27.3895 0.966667 26.5833V2.41667C0.966667 1.61048 1.61048 0.966667 2.41667 0.966667ZM20.8985 5.2015C22.222 5.2015 23.1698 5.28835 23.6796 5.34121V8.18457L21.9237 8.18646C20.9684 8.18646 20.2679 8.42812 19.8469 8.92845C19.424 9.42878 19.3428 10.0707 19.3428 10.7296V13.9128H23.4643L23.0433 17.1772H19.3428V28.0333H15.9406V17.1772H12.2872V13.9128H15.9406V10.3086C15.9406 8.59805 16.4541 7.34251 17.3075 6.50046C18.159 5.65651 19.3824 5.2015 20.8985 5.2015ZM2.41667 24.65C2.15046 24.65 1.93333 24.8671 1.93333 25.1333C1.93333 25.3995 2.15046 25.6167 2.41667 25.6167C2.68288 25.6167 2.9 25.3995 2.9 25.1333C2.9 24.8671 2.68288 24.65 2.41667 24.65ZM4.35 24.65C4.08379 24.65 3.86667 24.8671 3.86667 25.1333C3.86667 25.3995 4.08379 25.6167 4.35 25.6167C4.61621 25.6167 4.83333 25.3995 4.83333 25.1333C4.83333 24.8671 4.61621 24.65 4.35 24.65ZM6.28333 24.65C6.01712 24.65 5.8 24.8671 5.8 25.1333C5.8 25.3995 6.01712 25.6167 6.28333 25.6167C6.54954 25.6167 6.76667 25.3995 6.76667 25.1333C6.76667 24.8671 6.54954 24.65 6.28333 24.65ZM8.21667 24.65C7.95046 24.65 7.73333 24.8671 7.73333 25.1333C7.73333 25.3995 7.95046 25.6167 8.21667 25.6167C8.48288 25.6167 8.7 25.3995 8.7 25.1333C8.7 24.8671 8.48288 24.65 8.21667 24.65ZM10.15 24.65C9.88379 24.65 9.66667 24.8671 9.66667 25.1333C9.66667 25.3995 9.88379 25.6167 10.15 25.6167C10.4162 25.6167 10.6333 25.3995 10.6333 25.1333C10.6333 24.8671 10.4162 24.65 10.15 24.65ZM12.0833 24.65C11.8171 24.65 11.6 24.8671 11.6 25.1333C11.6 25.3995 11.8171 25.6167 12.0833 25.6167C12.3495 25.6167 12.5667 25.3995 12.5667 25.1333C12.5667 24.8671 12.3495 24.65 12.0833 24.65ZM14.0167 24.65C13.7505 24.65 13.5333 24.8671 13.5333 25.1333C13.5333 25.3995 13.7505 25.6167 14.0167 25.6167C14.2829 25.6167 14.5 25.3995 14.5 25.1333C14.5 24.8671 14.2829 24.65 14.0167 24.65ZM21.2667 24.65C21.0005 24.65 20.7833 24.8671 20.7833 25.1333C20.7833 25.3995 21.0005 25.6167 21.2667 25.6167C21.5329 25.6167 21.75 25.3995 21.75 25.1333C21.75 24.8671 21.5329 24.65 21.2667 24.65ZM23.2 24.65C22.9338 24.65 22.7167 24.8671 22.7167 25.1333C22.7167 25.3995 22.9338 25.6167 23.2 25.6167C23.4662 25.6167 23.6833 25.3995 23.6833 25.1333C23.6833 24.8671 23.4662 24.65 23.2 24.65ZM25.1333 24.65C24.8671 24.65 24.65 24.8671 24.65 25.1333C24.65 25.3995 24.8671 25.6167 25.1333 25.6167C25.3995 25.6167 25.6167 25.3995 25.6167 25.1333C25.6167 24.8671 25.3995 24.65 25.1333 24.65ZM27.0667 24.65C26.8005 24.65 26.5833 24.8671 26.5833 25.1333C26.5833 25.3995 26.8005 25.6167 27.0667 25.6167C27.3329 25.6167 27.55 25.3995 27.55 25.1333C27.55 24.8671 27.3329 24.65 27.0667 24.65Z" fill="#CD8588"/>
</svg>
