<svg width="29" height="29" viewBox="0 0 29 29" fill="none" xmlns="http://www.w3.org/2000/svg">
<path d="M3.90385 0C1.7515 0 0 1.7515 0 3.90385V25.0962C0 27.2485 1.7515 29 3.90385 29H25.0962C27.2485 29 29 27.2485 29 25.0962V3.90385C29 1.7515 27.2485 0 25.0962 0H3.90385ZM3.90385 1.11538H25.0962C26.6342 1.11538 27.8846 2.36584 27.8846 3.90385V25.0962C27.8846 26.6342 26.6342 27.8846 25.0962 27.8846H3.90385C2.36584 27.8846 1.11538 26.6342 1.11538 25.0962V3.90385C1.11538 2.36584 2.36584 1.11538 3.90385 1.11538ZM23.4231 3.90385C22.5016 3.90385 21.75 4.65542 21.75 5.57692C21.75 6.49842 22.5016 7.25 23.4231 7.25C24.3446 7.25 25.0962 6.49842 25.0962 5.57692C25.0962 4.65542 24.3446 3.90385 23.4231 3.90385ZM23.4231 4.75781C23.874 4.75781 24.2422 5.12598 24.2422 5.57692C24.2422 6.02787 23.874 6.39603 23.4231 6.39603C22.9721 6.39603 22.604 6.02787 22.604 5.57692C22.604 5.12598 22.9721 4.75781 23.4231 4.75781ZM14.5 6.69231C10.1953 6.69231 6.69231 10.1953 6.69231 14.5C6.69231 18.8047 10.1953 22.3077 14.5 22.3077C18.8047 22.3077 22.3077 18.8047 22.3077 14.5C22.3077 10.1953 18.8047 6.69231 14.5 6.69231ZM14.5 7.80769C18.1904 7.80769 21.1923 10.8096 21.1923 14.5C21.1923 18.1904 18.1904 21.1923 14.5 21.1923C10.8096 21.1923 7.80769 18.1904 7.80769 14.5C7.80769 10.8096 10.8096 7.80769 14.5 7.80769ZM14.5 8.92308C11.424 8.92308 8.92308 11.424 8.92308 14.5C8.92308 17.576 11.424 20.0769 14.5 20.0769C17.576 20.0769 20.0769 17.576 20.0769 14.5C20.0769 11.424 17.576 8.92308 14.5 8.92308ZM14.5 10.0385C16.9595 10.0385 18.9615 12.0405 18.9615 14.5C18.9615 16.9595 16.9595 18.9615 14.5 18.9615C12.0405 18.9615 10.0385 16.9595 10.0385 14.5C10.0385 12.0405 12.0405 10.0385 14.5 10.0385ZM3.34615 23.9808C3.03899 23.9808 2.78846 24.2313 2.78846 24.5385V25.6538C2.78846 25.961 3.03899 26.2115 3.34615 26.2115C3.65332 26.2115 3.90385 25.961 3.90385 25.6538V24.5385C3.90385 24.2313 3.65332 23.9808 3.34615 23.9808ZM6.13461 23.9808C5.82745 23.9808 5.57692 24.2313 5.57692 24.5385V25.6538C5.57692 25.961 5.82745 26.2115 6.13461 26.2115C6.44178 26.2115 6.69231 25.961 6.69231 25.6538V24.5385C6.69231 24.2313 6.44178 23.9808 6.13461 23.9808ZM8.92308 23.9808C8.61591 23.9808 8.36538 24.2313 8.36538 24.5385V25.6538C8.36538 25.961 8.61591 26.2115 8.92308 26.2115C9.23024 26.2115 9.48077 25.961 9.48077 25.6538V24.5385C9.48077 24.2313 9.23024 23.9808 8.92308 23.9808ZM11.7115 23.9808C11.4044 23.9808 11.1538 24.2313 11.1538 24.5385V25.6538C11.1538 25.961 11.4044 26.2115 11.7115 26.2115C12.0187 26.2115 12.2692 25.961 12.2692 25.6538V24.5385C12.2692 24.2313 12.0187 23.9808 11.7115 23.9808ZM14.5 23.9808C14.1928 23.9808 13.9423 24.2313 13.9423 24.5385V25.6538C13.9423 25.961 14.1928 26.2115 14.5 26.2115C14.8072 26.2115 15.0577 25.961 15.0577 25.6538V24.5385C15.0577 24.2313 14.8072 23.9808 14.5 23.9808ZM17.2885 23.9808C16.9813 23.9808 16.7308 24.2313 16.7308 24.5385V25.6538C16.7308 25.961 16.9813 26.2115 17.2885 26.2115C17.5956 26.2115 17.8462 25.961 17.8462 25.6538V24.5385C17.8462 24.2313 17.5956 23.9808 17.2885 23.9808ZM20.0769 23.9808C19.7698 23.9808 19.5192 24.2313 19.5192 24.5385V25.6538C19.5192 25.961 19.7698 26.2115 20.0769 26.2115C20.3841 26.2115 20.6346 25.961 20.6346 25.6538V24.5385C20.6346 24.2313 20.3841 23.9808 20.0769 23.9808ZM22.8654 23.9808C22.5582 23.9808 22.3077 24.2313 22.3077 24.5385V25.6538C22.3077 25.961 22.5582 26.2115 22.8654 26.2115C23.1726 26.2115 23.4231 25.961 23.4231 25.6538V24.5385C23.4231 24.2313 23.1726 23.9808 22.8654 23.9808ZM25.6538 23.9808C25.3467 23.9808 25.0962 24.2313 25.0962 24.5385V25.6538C25.0962 25.961 25.3467 26.2115 25.6538 26.2115C25.961 26.2115 26.2115 25.961 26.2115 25.6538V24.5385C26.2115 24.2313 25.961 23.9808 25.6538 23.9808Z" fill="#CD8588"/>
</svg>
