<svg width="166" height="77" viewBox="0 0 166 77" fill="none" xmlns="http://www.w3.org/2000/svg">
<path d="M0 58.72C0 56.2453 0.106667 53.6427 0.32 50.912C0.576 48.1387 0.896 45.3867 1.28 42.656C1.70667 39.8827 2.176 37.1733 2.688 34.528C3.2 31.84 3.73333 29.344 4.288 27.04C4.45867 26.3147 4.71467 25.248 5.056 23.84C5.44 22.3893 5.86667 20.7893 6.336 19.04C6.80533 17.2907 7.31733 15.4773 7.872 13.6C8.42667 11.7227 8.96 9.952 9.472 8.288C10.0267 6.624 10.56 5.152 11.072 3.872C11.584 2.592 12.0107 1.696 12.352 1.184C12.7787 0.629331 13.2907 0.351997 13.888 0.351997C14.3573 0.351997 14.72 0.586664 14.976 1.056C15.232 1.52533 15.168 2.25067 14.784 3.232C14.5707 3.78667 14.3787 4.34133 14.208 4.896C14.0373 5.45066 13.8453 6.02666 13.632 6.624C12.8213 9.056 12.0747 11.488 11.392 13.92C10.7093 16.3093 10.048 18.7413 9.408 21.216C8.512 24.8427 7.59467 28.64 6.656 32.608C5.76 36.576 5.07733 40.416 4.608 44.128C4.48 45.024 4.33067 46.0267 4.16 47.136C4.032 48.2027 3.88267 49.312 3.712 50.464C3.584 51.5733 3.47733 52.6827 3.392 53.792C3.30667 54.9013 3.264 55.904 3.264 56.8C3.264 57.9093 3.22133 58.8907 3.136 59.744C3.09333 60.64 3.05067 61.536 3.008 62.432C3.008 63.328 3.05067 64.3093 3.136 65.376C3.264 66.4427 3.47733 67.7653 3.776 69.344C4.45867 72.544 5.33333 74.144 6.4 74.144C7.08267 74.144 7.808 73.632 8.576 72.608C9.38667 71.584 10.24 70.24 11.136 68.576L21.376 50.016C21.5467 49.76 21.6747 49.5467 21.76 49.376C21.888 49.2053 22.0373 48.9493 22.208 48.608C22.3787 48.3093 22.6773 47.7333 23.104 46.88C23.5733 45.984 24.064 45.088 24.576 44.192C25.088 43.2533 25.6 42.4213 26.112 41.696C26.624 40.9707 27.008 40.608 27.264 40.608C27.8613 40.608 28.16 40.9067 28.16 41.504C28.16 41.76 27.9467 42.336 27.52 43.232C27.0933 44.128 26.5813 45.088 25.984 46.112C25.4293 47.136 24.896 48.1173 24.384 49.056C23.872 49.9947 23.5093 50.656 23.296 51.04L14.336 67.424C13.9947 68.1067 13.5253 68.96 12.928 69.984C12.3733 71.0507 11.7333 72.0533 11.008 72.992C10.2827 73.9733 9.49333 74.8053 8.64 75.488C7.82933 76.2133 6.976 76.576 6.08 76.576C4.672 76.576 3.56267 75.8293 2.752 74.336C1.94133 72.8427 1.32267 71.0933 0.896 69.088C0.512 67.0827 0.256 65.0987 0.128 63.136C0.0426667 61.1733 0 59.7013 0 58.72ZM30.3745 52.256C29.5212 52.256 28.7532 51.9787 28.0705 51.424C27.4305 50.8693 26.9398 50.2933 26.5985 49.696C25.8305 48.2453 25.3825 46.5387 25.2545 44.576C25.1692 42.5707 25.2972 40.7573 25.6385 39.136C25.6812 38.7947 25.7452 38.3893 25.8305 37.92C25.9585 37.4507 26.1078 37.0027 26.2785 36.576C26.4492 36.1067 26.6625 35.7227 26.9185 35.424C27.1745 35.0827 27.4518 34.912 27.7505 34.912C28.4758 34.912 28.9025 35.104 29.0305 35.488C29.1585 35.8293 29.1585 36.384 29.0305 37.152C28.9025 37.92 28.7105 38.9013 28.4545 40.096C28.2412 41.2907 28.1345 42.6987 28.1345 44.32C28.1345 44.7893 28.1772 45.3653 28.2625 46.048C28.3478 46.688 28.4758 47.3067 28.6465 47.904C28.8598 48.5013 29.1158 49.0133 29.4145 49.44C29.7558 49.824 30.1398 50.016 30.5665 50.016C31.0785 50.016 31.6545 49.8453 32.2945 49.504C32.9345 49.12 33.5532 48.672 34.1505 48.16C34.7478 47.648 35.2812 47.136 35.7505 46.624C36.2625 46.112 36.6465 45.7067 36.9025 45.408C36.9878 45.3227 37.2225 45.024 37.6065 44.512C37.9905 44 38.4385 43.4453 38.9505 42.848C39.4625 42.2507 39.9745 41.7173 40.4865 41.248C41.0412 40.7787 41.4678 40.544 41.7665 40.544C42.0652 40.544 42.2145 40.8 42.2145 41.312C42.2145 41.6107 42.0012 42.08 41.5745 42.72C41.1905 43.3173 40.7212 43.9573 40.1665 44.64C39.6118 45.3227 39.0572 45.9627 38.5025 46.56C37.9905 47.1573 37.6065 47.584 37.3505 47.84C36.9665 48.224 36.5185 48.672 36.0065 49.184C35.5372 49.696 35.0038 50.1867 34.4065 50.656C33.8092 51.0827 33.1692 51.4667 32.4865 51.808C31.8465 52.1067 31.1425 52.256 30.3745 52.256ZM28.3265 26.848C28.3265 26.1227 28.5185 25.504 28.9025 24.992C29.2865 24.4373 29.7132 24.16 30.1825 24.16C30.6945 24.16 31.1212 24.48 31.4625 25.12C32.0598 26.3147 32.1238 27.2533 31.6545 27.936C31.2278 28.576 30.6945 28.896 30.0545 28.896C29.5852 28.896 29.1798 28.7467 28.8385 28.448C28.4972 28.1067 28.3265 27.5733 28.3265 26.848ZM42.569 59.872C43.5503 59.872 44.4463 59.5947 45.257 59.04C46.0677 58.4853 46.8143 57.8027 47.497 56.992C48.1797 56.224 48.777 55.3707 49.289 54.432C49.8437 53.536 50.313 52.7253 50.697 52C50.4837 52.0853 50.121 52.2347 49.609 52.448C49.097 52.704 48.5423 52.9813 47.945 53.28C47.3903 53.6213 46.857 53.9413 46.345 54.24C45.833 54.5387 45.4703 54.752 45.257 54.88C44.7023 55.2213 44.0837 55.6693 43.401 56.224C42.761 56.8213 42.2277 57.376 41.801 57.888C41.417 58.4427 41.2463 58.912 41.289 59.296C41.3317 59.68 41.7583 59.872 42.569 59.872ZM40.521 47.968C40.521 46.3467 40.585 44.3413 40.713 41.952C40.841 39.52 41.033 37.024 41.289 34.464C41.545 31.904 41.8863 29.4507 42.313 27.104C42.7397 24.7147 43.2517 22.7733 43.849 21.28C44.1903 20.4267 44.5103 19.8507 44.809 19.552C45.1077 19.2107 45.385 19.04 45.641 19.04C45.9397 19.04 46.1743 19.1893 46.345 19.488C46.5157 19.7867 46.5797 20.0427 46.537 20.256C46.537 20.3413 46.473 20.576 46.345 20.96C46.2597 21.3013 46.1957 21.6213 46.153 21.92C45.8117 23.2427 45.449 25.0133 45.065 27.232C44.681 29.408 44.3183 31.6907 43.977 34.08C43.6783 36.4267 43.4223 38.7093 43.209 40.928C43.0383 43.104 42.953 44.832 42.953 46.112L44.361 43.808C44.7023 43.0827 45.193 42.3573 45.833 41.632C46.5157 40.6933 47.2623 39.968 48.073 39.456C48.9263 38.9013 49.7797 38.624 50.633 38.624C51.9983 38.624 53.0863 39.3493 53.897 40.8C54.6223 42.208 54.921 43.4667 54.793 44.576C54.665 45.6853 54.601 46.7307 54.601 47.712C55.1983 47.3707 55.689 47.1147 56.073 46.944C56.4997 46.7307 56.8837 46.5173 57.225 46.304C57.609 46.0907 57.993 45.856 58.377 45.6C58.8037 45.344 59.2943 45.0027 59.849 44.576C60.1477 44.3627 60.5317 44.064 61.001 43.68C61.4703 43.2533 61.9397 42.848 62.409 42.464C62.8783 42.08 63.2837 41.7387 63.625 41.44C64.009 41.1413 64.265 40.992 64.393 40.992C65.033 40.992 65.3743 41.1413 65.417 41.44C65.4597 41.696 65.353 41.9947 65.097 42.336C64.8837 42.6773 64.6063 42.9973 64.265 43.296C63.9663 43.5947 63.7743 43.7653 63.689 43.808C63.2197 44.32 62.729 44.768 62.217 45.152C61.705 45.536 61.193 45.9627 60.681 46.432C60.169 46.816 59.529 47.2213 58.761 47.648C58.0357 48.0747 57.3103 48.5013 56.585 48.928C55.9023 49.3547 55.2837 49.7387 54.729 50.08C54.217 50.3787 53.9183 50.592 53.833 50.72C53.705 50.9333 53.4917 51.424 53.193 52.192C52.937 52.96 52.553 53.8347 52.041 54.816C51.529 55.7973 50.8677 56.7787 50.057 57.76C49.2463 58.784 48.2437 59.6587 47.049 60.384C45.5557 61.3227 44.041 61.792 42.505 61.792C41.609 61.792 40.841 61.5573 40.201 61.088C39.561 60.6613 39.241 59.9573 39.241 58.976C39.241 58.0373 39.6677 57.0987 40.521 56.16C41.417 55.264 42.4623 54.4107 43.657 53.6C44.8517 52.7893 46.0677 52.064 47.305 51.424C48.585 50.7413 49.609 50.208 50.377 49.824C50.9743 49.5253 51.337 49.3333 51.465 49.248C51.6357 49.1627 51.8063 48.7573 51.977 48.032C52.1903 47.136 52.3183 46.2613 52.361 45.408C52.4037 44.512 52.361 43.7227 52.233 43.04C52.105 42.3573 51.8703 41.8027 51.529 41.376C51.2303 40.9493 50.8463 40.736 50.377 40.736C49.5663 40.736 48.5423 41.44 47.305 42.848C46.4943 43.8293 45.8117 44.8747 45.257 45.984C44.745 47.0933 44.2757 48.1387 43.849 49.12C43.465 50.0587 43.1237 50.848 42.825 51.488C42.5263 52.128 42.2277 52.448 41.929 52.448C41.5023 52.448 41.1823 52.2987 40.969 52C40.7557 51.7013 40.6063 51.3387 40.521 50.912C40.4783 50.4427 40.457 49.952 40.457 49.44C40.4997 48.8853 40.521 48.3947 40.521 47.968ZM65.319 40.416C65.703 40.2027 66.1297 39.9467 66.599 39.648C67.111 39.3493 67.5803 39.0293 68.007 38.688C68.4337 38.304 68.7963 37.8987 69.095 37.472C69.3937 37.0027 69.5643 36.512 69.607 36C69.1803 36.0853 68.7323 36.2987 68.263 36.64C67.7937 36.9387 67.367 37.3013 66.983 37.728C66.599 38.1547 66.2577 38.624 65.959 39.136C65.6603 39.6053 65.447 40.032 65.319 40.416ZM62.439 41.952C62.439 41.1413 62.6523 40.288 63.079 39.392C63.5057 38.4533 64.039 37.6 64.679 36.832C65.319 36.0213 66.0443 35.36 66.855 34.848C67.6657 34.2933 68.455 34.016 69.223 34.016C70.631 34.016 71.3563 34.5493 71.399 35.616C71.4843 36.6827 71.0363 37.8347 70.055 39.072C69.543 39.6693 68.775 40.3307 67.751 41.056C66.727 41.7387 65.7243 42.1227 64.743 42.208C64.743 42.8907 64.7643 43.5093 64.807 44.064C64.8497 44.576 65.1483 45.1093 65.703 45.664C66.2577 46.2187 66.9617 46.496 67.815 46.496C68.3697 46.496 68.9457 46.3893 69.543 46.176C70.1403 45.9627 70.7163 45.728 71.271 45.472C71.8257 45.1733 72.3377 44.8747 72.807 44.576C73.319 44.2347 73.7243 43.936 74.023 43.68C74.279 43.4667 74.471 43.296 74.599 43.168C74.7697 43.04 74.9617 42.8907 75.175 42.72C75.815 42.208 76.263 41.8027 76.519 41.504C76.8177 41.2053 77.031 40.9707 77.159 40.8C77.3297 40.6293 77.5003 40.5227 77.671 40.48C77.8843 40.4373 78.2257 40.416 78.695 40.416C78.7803 40.8853 78.8017 41.2053 78.759 41.376C78.759 41.5467 78.6097 41.8027 78.311 42.144C77.7137 42.7413 77.0097 43.4027 76.199 44.128C75.3883 44.8533 74.4923 45.536 73.511 46.176C72.5723 46.816 71.591 47.3493 70.567 47.776C69.5857 48.2027 68.6043 48.416 67.623 48.416C66.1723 48.416 64.935 47.904 63.911 46.88C63.143 46.112 62.695 45.3227 62.567 44.512C62.4817 43.7013 62.439 42.848 62.439 41.952ZM77.146 51.744C76.8473 51.744 76.634 51.5733 76.506 51.232C76.378 50.8907 76.2927 50.528 76.25 50.144C76.25 49.7173 76.2713 49.312 76.314 48.928C76.3567 48.544 76.378 48.288 76.378 48.16C76.3353 47.392 76.314 46.624 76.314 45.856C76.3567 45.0453 76.3567 44.2347 76.314 43.424C76.314 43.1253 76.314 42.5493 76.314 41.696C76.3567 40.8427 76.4207 39.968 76.506 39.072C76.634 38.176 76.8047 37.3867 77.018 36.704C77.2313 35.9787 77.5087 35.616 77.85 35.616C78.7033 35.616 79.13 35.8933 79.13 36.448C79.1727 37.0027 79.1513 37.728 79.066 38.624C79.0233 38.9653 79.002 39.3067 79.002 39.648C79.002 39.9893 79.002 40.3307 79.002 40.672C79.002 41.1413 78.9807 41.44 78.938 41.568C78.8953 41.6533 78.874 41.9093 78.874 42.336C79.3433 41.9947 79.77 41.6107 80.154 41.184C80.538 40.7147 81.2207 40.48 82.202 40.48C82.5007 40.48 82.8847 40.48 83.354 40.48C83.866 40.4373 84.3993 40.416 84.954 40.416C85.8927 40.416 86.7673 40.48 87.578 40.608C88.3887 40.6933 88.794 40.9493 88.794 41.376C88.794 41.8453 88.5593 42.144 88.09 42.272C87.6633 42.3573 87.13 42.4 86.49 42.4C86.0633 42.4 85.6153 42.4 85.146 42.4C84.7193 42.3573 84.3353 42.336 83.994 42.336C83.3967 42.336 82.906 42.3573 82.522 42.4C82.138 42.4 81.818 42.464 81.562 42.592C81.306 42.6773 81.0713 42.8267 80.858 43.04C80.6873 43.2533 80.474 43.5733 80.218 44C79.8767 44.5547 79.578 45.152 79.322 45.792C79.066 46.432 78.874 47.136 78.746 47.904C78.6607 48.3307 78.618 48.7787 78.618 49.248C78.618 49.6747 78.5967 50.08 78.554 50.464C78.5113 50.848 78.3833 51.168 78.17 51.424C77.9993 51.6373 77.658 51.744 77.146 51.744ZM68.7035 23.456C68.7035 22.9867 69.0875 22.496 69.8555 21.984C70.5808 21.472 71.5195 20.96 72.6715 20.448C73.8235 19.936 75.1035 19.4453 76.5115 18.976C77.9195 18.5067 79.3062 18.08 80.6715 17.696C82.0368 17.2693 83.2955 16.9067 84.4475 16.608C85.5995 16.3093 86.4742 16.0747 87.0715 15.904C87.7542 15.7333 88.2662 15.6267 88.6075 15.584C88.9488 15.4987 89.2048 15.4133 89.3755 15.328C89.5462 15.2 89.6528 15.0293 89.6955 14.816C89.7808 14.56 89.8875 14.1547 90.0155 13.6C90.3568 11.8507 90.7408 10.656 91.1675 10.016C91.6368 9.33333 92.0848 8.992 92.5115 8.992C92.8528 8.992 93.1302 9.184 93.3435 9.568C93.5995 9.90933 93.7275 10.336 93.7275 10.848C93.7275 11.232 93.7062 11.4027 93.6635 11.36C93.6208 11.2747 93.6208 11.4027 93.6635 11.744C93.6635 11.8293 93.6635 11.936 93.6635 12.064C93.7062 12.192 93.7275 12.3627 93.7275 12.576C93.7275 13.0027 93.6635 13.2587 93.5355 13.344C93.4075 13.3867 93.2582 13.4293 93.0875 13.472C92.9168 13.472 92.7675 13.536 92.6395 13.664C92.5115 13.792 92.4475 14.112 92.4475 14.624C92.9595 14.624 93.5142 14.56 94.1115 14.432C94.7515 14.304 95.3062 14.1973 95.7755 14.112C97.6528 13.7707 99.5302 13.472 101.408 13.216C103.285 12.9173 105.205 12.768 107.168 12.768C107.936 12.768 108.533 12.896 108.96 13.152C109.429 13.408 109.728 13.7067 109.856 14.048C109.984 14.3467 109.941 14.6453 109.728 14.944C109.514 15.2 109.109 15.328 108.512 15.328C108.426 14.9867 108.362 14.8373 108.32 14.88C108.32 14.88 108.128 14.8373 107.744 14.752C107.573 14.7093 107.232 14.688 106.72 14.688C105.824 14.688 104.629 14.7947 103.135 15.008C101.642 15.1787 100.128 15.392 98.5915 15.648C97.0555 15.904 95.6475 16.16 94.3675 16.416C93.1302 16.6293 92.3195 16.7787 91.9355 16.864L90.6555 29.984C90.6128 30.2827 90.5915 30.6027 90.5915 30.944C90.6342 31.2853 90.6555 31.6267 90.6555 31.968C90.6555 32.3947 90.6128 32.672 90.5275 32.8C90.4848 32.928 90.4635 33.2267 90.4635 33.696C90.4635 34.6347 90.4848 35.7227 90.5275 36.96C90.5702 38.1547 90.5488 39.0933 90.4635 39.776C90.4208 40.2453 90.3782 41.2907 90.3355 42.912C90.2928 44.5333 90.2715 46.304 90.2715 48.224C90.2715 50.1013 90.2715 51.9147 90.2715 53.664C90.2715 55.4133 90.2928 56.6293 90.3355 57.312C90.3355 57.696 90.3782 58.208 90.4635 58.848C90.5488 59.5307 90.5915 60.192 90.5915 60.832C90.6342 61.472 90.5915 62.0267 90.4635 62.496C90.3355 62.9653 90.0582 63.2 89.6315 63.2C89.2048 63.2 88.8635 63.072 88.6075 62.816C88.3942 62.56 88.2235 62.24 88.0955 61.856C88.0102 61.472 87.9462 61.0453 87.9035 60.576C87.9035 60.1493 87.9035 59.744 87.9035 59.36C87.8182 58.208 87.7542 56.8853 87.7115 55.392C87.6688 53.9413 87.6475 52.448 87.6475 50.912C87.6475 49.376 87.6475 47.8827 87.6475 46.432C87.6902 44.9387 87.7115 43.616 87.7115 42.464L87.9035 39.456C87.9035 38.8587 87.9035 37.9413 87.9035 36.704C87.9035 35.424 87.9248 34.1227 87.9675 32.8C88.0102 31.4347 88.0528 30.176 88.0955 29.024C88.1382 27.8293 88.2022 26.9973 88.2875 26.528C88.3728 26.1013 88.4155 25.5893 88.4155 24.992C88.4582 24.3947 88.5008 23.8827 88.5435 23.456L89.1195 17.504C88.9062 17.5893 88.5222 17.696 87.9675 17.824C87.4128 17.9093 86.9648 17.9947 86.6235 18.08C84.4902 18.592 82.4848 19.1467 80.6075 19.744C78.7302 20.2987 76.7888 20.96 74.7835 21.728C74.3995 21.8987 74.0582 22.0907 73.7595 22.304C73.4182 22.4747 73.0555 22.6453 72.6715 22.816C72.2875 22.9867 72.0102 23.1147 71.8395 23.2C71.6688 23.2427 71.5622 23.3067 71.5195 23.392C71.4768 23.4773 71.4342 23.6053 71.3915 23.776C71.3488 23.904 71.2635 24.1173 71.1355 24.416C70.7088 24.5013 70.3462 24.544 70.0475 24.544C69.7062 24.544 69.4075 24.48 69.1515 24.352C68.8528 24.224 68.7035 23.9253 68.7035 23.456ZM97.069 40.416C97.453 40.2027 97.8797 39.9467 98.349 39.648C98.861 39.3493 99.3303 39.0293 99.757 38.688C100.184 38.304 100.546 37.8987 100.845 37.472C101.144 37.0027 101.314 36.512 101.357 36C100.93 36.0853 100.482 36.2987 100.013 36.64C99.5437 36.9387 99.117 37.3013 98.733 37.728C98.349 38.1547 98.0077 38.624 97.709 39.136C97.4103 39.6053 97.197 40.032 97.069 40.416ZM94.189 41.952C94.189 41.1413 94.4023 40.288 94.829 39.392C95.2557 38.4533 95.789 37.6 96.429 36.832C97.069 36.0213 97.7943 35.36 98.605 34.848C99.4157 34.2933 100.205 34.016 100.973 34.016C102.381 34.016 103.106 34.5493 103.149 35.616C103.234 36.6827 102.786 37.8347 101.805 39.072C101.293 39.6693 100.525 40.3307 99.501 41.056C98.477 41.7387 97.4743 42.1227 96.493 42.208C96.493 42.8907 96.5143 43.5093 96.557 44.064C96.5997 44.576 96.8983 45.1093 97.453 45.664C98.0077 46.2187 98.7117 46.496 99.565 46.496C100.12 46.496 100.696 46.3893 101.293 46.176C101.89 45.9627 102.466 45.728 103.021 45.472C103.576 45.1733 104.088 44.8747 104.557 44.576C105.069 44.2347 105.474 43.936 105.773 43.68C106.029 43.4667 106.221 43.296 106.349 43.168C106.52 43.04 106.712 42.8907 106.925 42.72C107.565 42.208 108.013 41.8027 108.269 41.504C108.568 41.2053 108.781 40.9707 108.909 40.8C109.08 40.6293 109.25 40.5227 109.421 40.48C109.634 40.4373 109.976 40.416 110.445 40.416C110.53 40.8853 110.552 41.2053 110.509 41.376C110.509 41.5467 110.36 41.8027 110.061 42.144C109.464 42.7413 108.76 43.4027 107.949 44.128C107.138 44.8533 106.242 45.536 105.261 46.176C104.322 46.816 103.341 47.3493 102.317 47.776C101.336 48.2027 100.354 48.416 99.373 48.416C97.9223 48.416 96.685 47.904 95.661 46.88C94.893 46.112 94.445 45.3227 94.317 44.512C94.2317 43.7013 94.189 42.848 94.189 41.952ZM112.928 42.272C112.715 42.272 112.48 42.1867 112.224 42.016C112.011 41.8453 111.904 41.632 111.904 41.376C111.904 41.12 112.053 40.864 112.352 40.608C112.693 40.352 113.312 40.1387 114.208 39.968C114.293 39.968 114.656 39.9253 115.296 39.84C115.979 39.7547 116.811 39.6693 117.792 39.584C118.816 39.4987 119.883 39.4347 120.992 39.392C122.144 39.3067 123.189 39.264 124.128 39.264C125.109 39.264 125.899 39.328 126.496 39.456C127.136 39.5413 127.456 39.6907 127.456 39.904C127.456 40.16 127.328 40.3733 127.072 40.544C126.816 40.7147 126.496 40.864 126.112 40.992C125.771 41.0773 125.387 41.1627 124.96 41.248C124.576 41.2907 124.213 41.3547 123.872 41.44C123.573 41.4827 122.869 41.568 121.76 41.696C120.651 41.7813 119.477 41.8667 118.24 41.952C117.003 42.0373 115.851 42.1227 114.784 42.208C113.717 42.2507 113.099 42.272 112.928 42.272ZM131.393 62.56C131.393 63.456 131.67 63.904 132.225 63.904C132.524 63.904 132.844 63.7973 133.185 63.584C133.526 63.4133 133.804 63.2213 134.017 63.008C134.87 62.368 135.617 61.3867 136.257 60.064C136.94 58.784 137.43 57.6107 137.729 56.544C137.942 55.8187 138.049 55.072 138.049 54.304C138.092 53.5787 138.113 52.768 138.113 51.872C137.601 52.1707 137.004 52.6827 136.321 53.408C135.681 54.176 135.169 54.7947 134.785 55.264C134.017 56.2027 133.249 57.3333 132.481 58.656C131.756 59.9787 131.393 61.28 131.393 62.56ZM130.817 41.632C130.817 40.8213 130.988 40.0533 131.329 39.328C131.713 38.6027 132.161 37.984 132.673 37.472C133.228 36.9173 133.804 36.4907 134.401 36.192C134.998 35.8933 135.532 35.744 136.001 35.744C136.47 35.744 136.812 35.9147 137.025 36.256C137.281 36.5973 137.302 37.1733 137.089 37.984C136.705 38.0693 136.406 38.1333 136.193 38.176C136.022 38.2187 135.873 38.2613 135.745 38.304C135.617 38.3467 135.489 38.432 135.361 38.56C135.233 38.688 135.041 38.88 134.785 39.136C133.932 40.0747 133.548 40.8213 133.633 41.376C133.718 41.9307 134.06 42.4853 134.657 43.04C135.254 43.552 136.001 44.1707 136.897 44.896C137.836 45.5787 138.71 46.5387 139.521 47.776C140.46 47.136 141.42 46.3893 142.401 45.536L148.353 41.376C149.334 40.6933 150.166 40.352 150.849 40.352C151.361 40.352 151.574 40.5653 151.489 40.992C151.404 41.4187 150.998 41.8453 150.273 42.272L145.921 45.28C145.75 45.3653 145.366 45.6213 144.769 46.048C144.214 46.432 143.617 46.88 142.977 47.392C142.38 47.8613 141.825 48.3093 141.313 48.736C140.844 49.1627 140.588 49.44 140.545 49.568C140.502 49.7813 140.566 50.1867 140.737 50.784C140.95 51.3813 141.078 52.1493 141.121 53.088C141.164 54.0693 141.014 55.2427 140.673 56.608C140.374 58.016 139.692 59.6373 138.625 61.472C137.686 63.0507 136.662 64.2027 135.553 64.928C134.444 65.696 133.398 66.08 132.417 66.08C131.521 66.08 130.796 65.7813 130.241 65.184C129.644 64.5867 129.345 63.712 129.345 62.56C129.345 61.1093 129.729 59.7013 130.497 58.336C131.222 56.9707 132.033 55.712 132.929 54.56C133.868 53.408 134.764 52.4267 135.617 51.616C136.47 50.7627 137.025 50.144 137.281 49.76C136.769 48.864 136.15 48.096 135.425 47.456C134.7 46.7733 133.996 46.1547 133.313 45.6C132.63 45.0027 132.033 44.4053 131.521 43.808C131.052 43.2107 130.817 42.4853 130.817 41.632ZM152.069 40.416C152.453 40.2027 152.88 39.9467 153.349 39.648C153.861 39.3493 154.33 39.0293 154.757 38.688C155.184 38.304 155.546 37.8987 155.845 37.472C156.144 37.0027 156.314 36.512 156.357 36C155.93 36.0853 155.482 36.2987 155.013 36.64C154.544 36.9387 154.117 37.3013 153.733 37.728C153.349 38.1547 153.008 38.624 152.709 39.136C152.41 39.6053 152.197 40.032 152.069 40.416ZM149.189 41.952C149.189 41.1413 149.402 40.288 149.829 39.392C150.256 38.4533 150.789 37.6 151.429 36.832C152.069 36.0213 152.794 35.36 153.605 34.848C154.416 34.2933 155.205 34.016 155.973 34.016C157.381 34.016 158.106 34.5493 158.149 35.616C158.234 36.6827 157.786 37.8347 156.805 39.072C156.293 39.6693 155.525 40.3307 154.501 41.056C153.477 41.7387 152.474 42.1227 151.493 42.208C151.493 42.8907 151.514 43.5093 151.557 44.064C151.6 44.576 151.898 45.1093 152.453 45.664C153.008 46.2187 153.712 46.496 154.565 46.496C155.12 46.496 155.696 46.3893 156.293 46.176C156.89 45.9627 157.466 45.728 158.021 45.472C158.576 45.1733 159.088 44.8747 159.557 44.576C160.069 44.2347 160.474 43.936 160.773 43.68C161.029 43.4667 161.221 43.296 161.349 43.168C161.52 43.04 161.712 42.8907 161.925 42.72C162.565 42.208 163.013 41.8027 163.269 41.504C163.568 41.2053 163.781 40.9707 163.909 40.8C164.08 40.6293 164.25 40.5227 164.421 40.48C164.634 40.4373 164.976 40.416 165.445 40.416C165.53 40.8853 165.552 41.2053 165.509 41.376C165.509 41.5467 165.36 41.8027 165.061 42.144C164.464 42.7413 163.76 43.4027 162.949 44.128C162.138 44.8533 161.242 45.536 160.261 46.176C159.322 46.816 158.341 47.3493 157.317 47.776C156.336 48.2027 155.354 48.416 154.373 48.416C152.922 48.416 151.685 47.904 150.661 46.88C149.893 46.112 149.445 45.3227 149.317 44.512C149.232 43.7013 149.189 42.848 149.189 41.952Z" fill="#5F5C39"/>
</svg>
